<svg width="2110" height="1219" xmlns="http://www.w3.org/2000/svg" xmlns:xlink="http://www.w3.org/1999/xlink" xml:space="preserve" overflow="hidden"><defs><clipPath id="clip0"><rect x="1005" y="464" width="2110" height="1219"/></clipPath></defs><g clip-path="url(#clip0)" transform="translate(-1005 -464)"><path d="M2060 756 2060 875.991" stroke="#1C1C1C" stroke-width="13.75" stroke-miterlimit="8" fill="none" fill-rule="evenodd"/><path d="M2060 756 2737.97 875.991" stroke="#1C1C1C" stroke-width="13.75" stroke-miterlimit="8" fill="none" fill-rule="evenodd"/><path d="M0 0 677.97 119.991" stroke="#1C1C1C" stroke-width="13.75" stroke-miterlimit="8" fill="none" fill-rule="evenodd" transform="matrix(-1 0 0 1 2059.97 756)"/><path d="M1005 923.23C1005 897.146 1026.15 876 1052.23 876L1711.77 876C1737.85 876 1759 897.146 1759 923.23L1759 1635.77C1759 1661.85 1737.85 1683 1711.77 1683L1052.23 1683C1026.15 1683 1005 1661.85 1005 1635.77Z" fill="#CEDF8D" fill-rule="evenodd"/><text fill="#FCFCFC" font-family="BIZ UDPGothic,BIZ UDPGothic_MSFontService,sans-serif" font-weight="400" font-size="83" transform="matrix(1 0 0 1 1276.66 994)">WA</text><text fill="#FCFCFC" font-family="BIZ UDPGothic,BIZ UDPGothic_MSFontService,sans-serif" font-weight="400" font-size="83" transform="matrix(1 0 0 1 1419.89 994)">N</text><path d="M1062 1193C1062 1112.92 1154.9 1048 1269.5 1048 1384.1 1048 1477 1112.92 1477 1193 1477 1273.08 1384.1 1338 1269.5 1338 1154.9 1338 1062 1273.08 1062 1193Z" fill="#FCD4B0" fill-rule="evenodd"/><text font-family="BIZ UDPGothic,BIZ UDPGothic_MSFontService,sans-serif" font-weight="400" font-size="83" transform="matrix(1 0 0 1 1179.69 1230)">LAN</text><path d="M1312 1483.5C1312 1403.14 1404.9 1338 1519.5 1338 1634.1 1338 1727 1403.14 1727 1483.5 1727 1563.86 1634.1 1629 1519.5 1629 1404.9 1629 1312 1563.86 1312 1483.5Z" fill="#FCD4B0" fill-rule="evenodd"/><text font-family="BIZ UDPGothic,BIZ UDPGothic_MSFontService,sans-serif" font-weight="400" font-size="83" transform="matrix(1 0 0 1 1429.64 1521)">LAN</text><path d="M1853 1021.5C1853 941.142 1945.9 876 2060.5 876 2175.1 876 2268 941.142 2268 1021.5 2268 1101.86 2175.1 1167 2060.5 1167 1945.9 1167 1853 1101.86 1853 1021.5Z" fill="#FCD4B0" fill-rule="evenodd"/><text font-family="BIZ UDPGothic,BIZ UDPGothic_MSFontService,sans-serif" font-weight="400" font-size="83" transform="matrix(1 0 0 1 1970.39 1059)">LAN</text><path d="M2361 923.23C2361 897.146 2382.15 876 2408.23 876L3067.77 876C3093.85 876 3115 897.146 3115 923.23L3115 1635.77C3115 1661.85 3093.85 1683 3067.77 1683L2408.23 1683C2382.15 1683 2361 1661.85 2361 1635.77Z" fill="#CEDF8D" fill-rule="evenodd"/><text fill="#FCFCFC" font-family="BIZ UDPGothic,BIZ UDPGothic_MSFontService,sans-serif" font-weight="400" font-size="83" transform="matrix(1 0 0 1 2632.6 994)">WA</text><text fill="#FCFCFC" font-family="BIZ UDPGothic,BIZ UDPGothic_MSFontService,sans-serif" font-weight="400" font-size="83" transform="matrix(1 0 0 1 2775.83 994)">N</text><path d="M2418 1193C2418 1112.92 2510.9 1048 2625.5 1048 2740.1 1048 2833 1112.92 2833 1193 2833 1273.08 2740.1 1338 2625.5 1338 2510.9 1338 2418 1273.08 2418 1193Z" fill="#FCD4B0" fill-rule="evenodd"/><text font-family="BIZ UDPGothic,BIZ UDPGothic_MSFontService,sans-serif" font-weight="400" font-size="83" transform="matrix(1 0 0 1 2535.64 1230)">LAN</text><path d="M2668 1483.5C2668 1403.14 2760.9 1338 2875.5 1338 2990.1 1338 3083 1403.14 3083 1483.5 3083 1563.86 2990.1 1629 2875.5 1629 2760.9 1629 2668 1563.86 2668 1483.5Z" fill="#FCD4B0" fill-rule="evenodd"/><text font-family="BIZ UDPGothic,BIZ UDPGothic_MSFontService,sans-serif" font-weight="400" font-size="83" transform="matrix(1 0 0 1 2785.59 1521)">LAN</text><path d="M1697.49 563.298C1687.18 529.421 1740.26 498.222 1816.05 493.614 1846.77 491.747 1877.99 494.538 1904.73 501.542 1933.07 477.666 1999.29 468.592 2052.64 481.274 2061.97 483.492 2070.53 486.303 2078.06 489.619 2100.13 469.828 2153.88 461.787 2198.13 471.66 2210.37 474.392 2221.05 478.344 2229.35 483.211 2264.92 464.495 2327.78 462.183 2369.75 478.048 2387.39 484.715 2399.28 493.912 2403.38 504.061 2461.66 511.169 2496.04 538.096 2480.17 564.203 2478.84 566.397 2477.17 568.548 2475.16 570.638 2521.91 597.841 2510.47 636.831 2449.6 657.725 2430.66 664.229 2408.28 668.44 2384.64 669.951 2384.11 699.217 2330.57 722.752 2265.04 722.517 2243.15 722.439 2221.73 719.657 2203.16 714.479 2181 747.29 2103.69 765.835 2030.5 755.9 1999.82 751.737 1973.32 742.932 1955.5 730.988 1880.56 751.196 1783.28 740.325 1738.23 706.709 1737.66 706.285 1737.1 705.859 1736.55 705.43 1687.51 707.997 1643.08 692.351 1637.32 670.484 1634.25 658.829 1642.86 647.164 1660.85 638.596 1618.38 627.419 1604.11 602.887 1628.98 583.802 1643.33 572.792 1668.5 565.513 1696.74 564.204Z" stroke="#1C1C1C" stroke-width="4.58333" stroke-miterlimit="8" fill="#FFF5CD" fill-rule="evenodd"/><path d="M1713.75 642.831C1695.62 643.466 1677.49 641.592 1661.8 637.463M1759.59 701.584C1752.3 702.881 1744.65 703.745 1736.86 704.153M1955.45 729.815C1949.97 726.138 1945.38 722.208 1941.76 718.094M2208.72 700.587C2207.91 704.948 2206.08 709.259 2203.25 713.448M2317.46 621.121C2358.57 630.065 2384.51 648.764 2384.14 669.187M2474.75 569.926C2468.09 576.881 2457.93 583.05 2445.05 587.95M2403.5 503.05C2404.63 505.858 2405.16 508.709 2405.06 511.562M2213.87 493.121C2217.74 489.194 2222.86 485.538 2229.08 482.266M2071.6 498.294C2073.17 495.049 2075.65 491.904 2078.96 488.932M1904.63 501.474C1914.31 504.008 1923.26 507.058 1931.29 510.557M1702.14 572.857C1700.03 569.731 1698.47 566.536 1697.49 563.3" stroke="#1C1C1C" stroke-width="4.58333" stroke-miterlimit="8" fill="none" fill-rule="evenodd"/><text font-family="BIZ UDGothic,BIZ UDGothic_MSFontService,sans-serif" font-weight="400" font-size="83" transform="matrix(1 0 0 1 1739.78 642)">インターネット</text></g></svg>