<svg width="1932" height="1266" xmlns="http://www.w3.org/2000/svg" xmlns:xlink="http://www.w3.org/1999/xlink" xml:space="preserve" overflow="hidden"><defs><clipPath id="clip0"><rect x="1049" y="670" width="1932" height="1266"/></clipPath></defs><g clip-path="url(#clip0)" transform="translate(-1049 -670)"><path d="M1216 991 1262.5 991 1262.5 808 1355.5 808 1355.5 991 1402 991 1309 1084Z" fill="#BDBDBD" fill-rule="evenodd"/><rect x="1049" y="680" width="519" height="130" fill="#F7933A"/><text fill="#FCFCFC" font-family="BIZ UDGothic,BIZ UDGothic_MSFontService,sans-serif" font-weight="400" font-size="83" transform="matrix(1 0 0 1 1153.68 782)">子ども</text><text fill="#FCFCFC" font-family="BIZ UDPGothic,BIZ UDPGothic_MSFontService,sans-serif" font-weight="400" font-size="83" transform="matrix(1 0 0 1 1401.18 782)">A</text><rect x="2461" y="680" width="520" height="130" fill="#F7933A"/><text fill="#FCFCFC" font-family="BIZ UDGothic,BIZ UDGothic_MSFontService,sans-serif" font-weight="400" font-size="83" transform="matrix(1 0 0 1 2565.55 782)">子ども</text><text fill="#FCFCFC" font-family="BIZ UDPGothic,BIZ UDPGothic_MSFontService,sans-serif" font-weight="400" font-size="83" transform="matrix(1 0 0 1 2813.05 782)">B</text><path d="M1406.11 811.922 1520.71 840.92C1699.49 826.168 1882.15 860.136 1928.71 916.789 1975.26 973.443 1868.07 1031.33 1689.29 1046.08 1510.51 1060.83 1327.85 1026.86 1281.29 970.211 1246.93 928.395 1296.11 884.156 1405.59 858.396Z" stroke="#1C1C1C" stroke-width="4.58333" stroke-miterlimit="8" fill="#FCFCFC" fill-rule="evenodd"/><text fill="#1C1C1C" font-family="BIZ UDPGothic,BIZ UDPGothic_MSFontService,sans-serif" font-weight="400" font-size="46" transform="matrix(1 0 0 1 1426.23 936)">B</text><text fill="#1C1C1C" font-family="BIZ UDGothic,BIZ UDGothic_MSFontService,sans-serif" font-weight="400" font-size="46" transform="matrix(1 0 0 1 1461.75 936)">に「今度遊ぼ」</text><text fill="#1C1C1C" font-family="BIZ UDGothic,BIZ UDGothic_MSFontService,sans-serif" font-weight="400" font-size="46" transform="matrix(1 0 0 1 1466.9 991)">って言って！</text><rect x="1049" y="1084" width="519" height="129" fill="#F7933A"/><text fill="#FCFCFC" font-family="BIZ UDGothic,BIZ UDGothic_MSFontService,sans-serif" font-weight="400" font-size="83" transform="matrix(1 0 0 1 1234.46 1186)">親</text><text fill="#FCFCFC" font-family="BIZ UDPGothic,BIZ UDPGothic_MSFontService,sans-serif" font-weight="400" font-size="83" transform="matrix(1 0 0 1 1316.96 1186)">C</text><rect x="2461" y="1084" width="520" height="129" fill="#F7933A"/><text fill="#FCFCFC" font-family="BIZ UDGothic,BIZ UDGothic_MSFontService,sans-serif" font-weight="400" font-size="83" transform="matrix(1 0 0 1 2645.18 1186)">親</text><text fill="#FCFCFC" font-family="BIZ UDPGothic,BIZ UDPGothic_MSFontService,sans-serif" font-weight="400" font-size="83" transform="matrix(1 0 0 1 2727.68 1186)">D</text><path d="M2814 901 2767.5 901 2767.5 1084 2674.5 1084 2674.5 901 2628 901 2721 808Z" fill="#BDBDBD" fill-rule="evenodd"/><rect x="1049" y="1487" width="519" height="130" fill="#F7933A"/><text fill="#FCFCFC" font-family="BIZ UDPGothic,BIZ UDPGothic_MSFontService,sans-serif" font-weight="400" font-size="83" transform="matrix(1 0 0 1 1216.41 1590)">SNS</text><rect x="2461" y="1487" width="520" height="130" fill="#F7933A"/><text fill="#FCFCFC" font-family="BIZ UDPGothic,BIZ UDPGothic_MSFontService,sans-serif" font-weight="400" font-size="83" transform="matrix(1 0 0 1 2628.85 1590)">SNS</text><path d="M1216 1394 1262.5 1394 1262.5 1212 1355.5 1212 1355.5 1394 1402 1394 1309 1487Z" fill="#BDBDBD" fill-rule="evenodd"/><path d="M2814 1305 2767.5 1305 2767.5 1487 2674.5 1487 2674.5 1305 2628 1305 2721 1212Z" fill="#BDBDBD" fill-rule="evenodd"/><path d="M0 274 0 0 1503.5 0 1503.5 169.745 1524 169.745 1455.5 274 1387 169.745 1407.5 169.745 1407.5 96.0017 96.0017 96.0017 96.0017 274Z" fill="#59681D" fill-rule="evenodd" transform="matrix(1 0 0 -1 1265 1890)"/><text fill="#FCFCFC" font-family="BIZ UDGothic,BIZ UDGothic_MSFontService,sans-serif" font-weight="400" font-size="83" transform="matrix(1 0 0 1 1767.37 1874)">ネットワーク</text><path d="M1406.11 1218.92 1520.71 1247.92C1699.49 1233.17 1882.15 1267.14 1928.71 1323.79 1975.26 1380.44 1868.07 1438.33 1689.29 1453.08 1510.51 1467.83 1327.85 1433.86 1281.29 1377.21 1246.93 1335.4 1296.11 1291.16 1405.59 1265.4Z" stroke="#1C1C1C" stroke-width="4.58333" stroke-miterlimit="8" fill="#FCFCFC" fill-rule="evenodd"/><text fill="#1C1C1C" font-family="BIZ UDPGothic,BIZ UDPGothic_MSFontService,sans-serif" font-weight="400" font-size="46" transform="matrix(1 0 0 1 1431.66 1315)">A</text><text fill="#1C1C1C" font-family="BIZ UDGothic,BIZ UDGothic_MSFontService,sans-serif" font-weight="400" font-size="46" transform="matrix(1 0 0 1 1466.61 1315)">が</text><text fill="#1C1C1C" font-family="BIZ UDPGothic,BIZ UDPGothic_MSFontService,sans-serif" font-weight="400" font-size="46" transform="matrix(1 0 0 1 1512.44 1315)">B</text><text fill="#1C1C1C" font-family="BIZ UDGothic,BIZ UDGothic_MSFontService,sans-serif" font-weight="400" font-size="46" transform="matrix(1 0 0 1 1547.96 1315)">に「今度遊</text><text fill="#1C1C1C" font-family="BIZ UDGothic,BIZ UDGothic_MSFontService,sans-serif" font-weight="400" font-size="46" transform="matrix(1 0 0 1 1421.07 1370)">ぼ」って言ってる</text><text fill="#1C1C1C" font-family="BIZ UDGothic,BIZ UDGothic_MSFontService,sans-serif" font-weight="400" font-size="46" transform="matrix(1 0 0 1 1581.49 1425)">わ</text><path d="M2631.54 1486.65 2516.87 1459.51C2339.08 1475.42 2154.27 1442.64 2104.08 1386.3 2053.89 1329.96 2157.34 1271.39 2335.13 1255.49 2512.92 1239.58 2697.73 1272.36 2747.92 1328.7 2784.96 1370.29 2738.64 1414.84 2630.85 1441.3Z" stroke="#1C1C1C" stroke-width="4.58333" stroke-miterlimit="8" fill="#FCFCFC" fill-rule="evenodd"/><text fill="#1C1C1C" font-family="BIZ UDPGothic,BIZ UDPGothic_MSFontService,sans-serif" font-weight="400" font-size="46" transform="matrix(1 0 0 1 2252.6 1322)">A</text><text fill="#1C1C1C" font-family="BIZ UDGothic,BIZ UDGothic_MSFontService,sans-serif" font-weight="400" font-size="46" transform="matrix(1 0 0 1 2287.54 1322)">が</text><text fill="#1C1C1C" font-family="BIZ UDPGothic,BIZ UDPGothic_MSFontService,sans-serif" font-weight="400" font-size="46" transform="matrix(1 0 0 1 2333.38 1322)">B</text><text fill="#1C1C1C" font-family="BIZ UDGothic,BIZ UDGothic_MSFontService,sans-serif" font-weight="400" font-size="46" transform="matrix(1 0 0 1 2368.9 1322)">に「今度遊</text><text fill="#1C1C1C" font-family="BIZ UDGothic,BIZ UDGothic_MSFontService,sans-serif" font-weight="400" font-size="46" transform="matrix(1 0 0 1 2242.01 1377)">ぼ」って言ってる</text><text fill="#1C1C1C" font-family="BIZ UDGothic,BIZ UDGothic_MSFontService,sans-serif" font-weight="400" font-size="46" transform="matrix(1 0 0 1 2402.43 1432)">わ</text><path d="M2631.54 1082.76 2516.87 1055.49C2339.08 1071.47 2154.27 1038.54 2104.08 981.932 2053.89 925.326 2157.34 866.484 2335.13 850.505 2512.92 834.526 2697.73 867.461 2747.92 924.068 2784.96 965.849 2738.64 1010.61 2630.85 1037.19Z" stroke="#1C1C1C" stroke-width="4.58333" stroke-miterlimit="8" fill="#FCFCFC" fill-rule="evenodd"/><text fill="#1C1C1C" font-family="BIZ UDPGothic,BIZ UDPGothic_MSFontService,sans-serif" font-weight="400" font-size="46" transform="matrix(1 0 0 1 2252.6 918)">A</text><text fill="#1C1C1C" font-family="BIZ UDGothic,BIZ UDGothic_MSFontService,sans-serif" font-weight="400" font-size="46" transform="matrix(1 0 0 1 2287.54 918)">が</text><text fill="#1C1C1C" font-family="BIZ UDPGothic,BIZ UDPGothic_MSFontService,sans-serif" font-weight="400" font-size="46" transform="matrix(1 0 0 1 2333.38 918)">B</text><text fill="#1C1C1C" font-family="BIZ UDGothic,BIZ UDGothic_MSFontService,sans-serif" font-weight="400" font-size="46" transform="matrix(1 0 0 1 2368.9 918)">に「今度遊</text><text fill="#1C1C1C" font-family="BIZ UDGothic,BIZ UDGothic_MSFontService,sans-serif" font-weight="400" font-size="46" transform="matrix(1 0 0 1 2242.01 973)">ぼ」って言ってる</text><text fill="#1C1C1C" font-family="BIZ UDGothic,BIZ UDGothic_MSFontService,sans-serif" font-weight="400" font-size="46" transform="matrix(1 0 0 1 2333.68 1028)">んだって</text></g></svg>