<svg width="2297" height="1370" xmlns="http://www.w3.org/2000/svg" xmlns:xlink="http://www.w3.org/1999/xlink" xml:space="preserve" overflow="hidden"><defs><clipPath id="clip0"><rect x="748" y="641" width="2297" height="1370"/></clipPath></defs><g clip-path="url(#clip0)" transform="translate(-748 -641)"><text fill="#1C1C1C" font-family="BIZ UDPGothic,BIZ UDPGothic_MSFontService,sans-serif" font-weight="400" font-size="55" transform="matrix(1 0 0 1 1445.48 716)">A</text><text fill="#1C1C1C" font-family="BIZ UDGothic,BIZ UDGothic_MSFontService,sans-serif" font-weight="400" font-size="55" transform="matrix(1 0 0 1 1487.3 716)">さんが通信したい内容</text><text fill="#1C1C1C" font-family="BIZ UDPGothic,BIZ UDPGothic_MSFontService,sans-serif" font-weight="400" font-size="55" transform="matrix(1 0 0 1 2055.64 716)">(</text><text fill="#1C1C1C" font-family="BIZ UDGothic,BIZ UDGothic_MSFontService,sans-serif" font-weight="400" font-size="55" transform="matrix(1 0 0 1 2082.56 716)">巨大サイズ</text><text fill="#1C1C1C" font-family="BIZ UDPGothic,BIZ UDPGothic_MSFontService,sans-serif" font-weight="400" font-size="55" transform="matrix(1 0 0 1 2357.56 716)">)</text><text fill="#1C1C1C" font-family="BIZ UDPGothic,BIZ UDPGothic_MSFontService,sans-serif" font-weight="400" font-size="55" transform="matrix(1 0 0 1 1445.48 1067)">B</text><text fill="#1C1C1C" font-family="BIZ UDGothic,BIZ UDGothic_MSFontService,sans-serif" font-weight="400" font-size="55" transform="matrix(1 0 0 1 1487.88 1067)">さんが通信したい内容</text><text fill="#1C1C1C" font-family="BIZ UDPGothic,BIZ UDPGothic_MSFontService,sans-serif" font-weight="400" font-size="55" transform="matrix(1 0 0 1 2056.21 1067)">(</text><text fill="#1C1C1C" font-family="BIZ UDGothic,BIZ UDGothic_MSFontService,sans-serif" font-weight="400" font-size="55" transform="matrix(1 0 0 1 2083.14 1067)">普通サイズが</text><text fill="#1C1C1C" font-family="BIZ UDPGothic,BIZ UDPGothic_MSFontService,sans-serif" font-weight="400" font-size="55" transform="matrix(1 0 0 1 2431.47 1067)">2 </text><text fill="#1C1C1C" font-family="BIZ UDGothic,BIZ UDGothic_MSFontService,sans-serif" font-weight="400" font-size="55" transform="matrix(1 0 0 1 2491.63 1067)">回</text><text fill="#1C1C1C" font-family="BIZ UDPGothic,BIZ UDPGothic_MSFontService,sans-serif" font-weight="400" font-size="55" transform="matrix(1 0 0 1 2546.63 1067)">)</text><text fill="#1C1C1C" font-family="BIZ UDGothic,BIZ UDGothic_MSFontService,sans-serif" font-weight="400" font-size="83" transform="matrix(1 0 0 1 871.296 1865)">パケット通信</text><path d="M1412.48 1749.91 1672.32 1749.91 1672.32 1905.82 1412.48 1905.82Z" fill="#F7933A" fill-rule="evenodd"/><path d="M1672.32 1749.91 1932.17 1749.91 1932.17 1905.82 1672.32 1905.82Z" fill="#00ADA2" fill-rule="evenodd"/><path d="M1932.17 1749.91 2192.01 1749.91 2192.01 1905.82 1932.17 1905.82Z" fill="#F7933A" fill-rule="evenodd"/><path d="M2192.01 1749.91 2451.85 1749.91 2451.85 1905.82 2192.01 1905.82Z" fill="#F7933A" fill-rule="evenodd"/><path d="M2451.85 1749.91 2711.69 1749.91 2711.69 1905.82 2451.85 1905.82Z" fill="#00ADA2" fill-rule="evenodd"/><path d="M2711.69 1749.91 2971.54 1749.91 2971.54 1905.82 2711.69 1905.82Z" fill="#F7933A" fill-rule="evenodd"/><text fill="#FCFCFC" font-family="BIZ UDGothic,BIZ UDGothic_MSFontService,sans-serif" font-weight="700" font-size="55" transform="matrix(1 0 0 1 1843.97 1853)">②</text><text fill="#FCFCFC" font-family="BIZ UDGothic,BIZ UDGothic_MSFontService,sans-serif" font-weight="700" font-size="55" transform="matrix(1 0 0 1 2623.5 1853)">①</text><text fill="#FCFCFC" font-family="BIZ UDGothic,BIZ UDGothic_MSFontService,sans-serif" font-weight="700" font-size="55" transform="matrix(1 0 0 1 2883.34 1853)">①</text><path d="M1412.48 1469.88 1672.32 1469.88 1672.32 1625.79 1412.48 1625.79Z" fill="#00ADA2" fill-rule="evenodd"/><path d="M1672.32 1469.88 1932.17 1469.88 1932.17 1625.79 1672.32 1625.79Z" fill="#F7933A" fill-rule="evenodd"/><path d="M1932.17 1469.88 2192.01 1469.88 2192.01 1625.79 1932.17 1625.79Z" fill="#F7933A" fill-rule="evenodd"/><path d="M2192.01 1469.88 2451.85 1469.88 2451.85 1625.79 2192.01 1625.79Z" fill="#F7933A" fill-rule="evenodd"/><path d="M2451.85 1469.88 2711.69 1469.88 2711.69 1625.79 2451.85 1625.79Z" fill="#F7933A" fill-rule="evenodd"/><path d="M2711.69 1469.88 2971.54 1469.88 2971.54 1625.79 2711.69 1625.79Z" fill="#F7933A" fill-rule="evenodd"/><text fill="#FCFCFC" font-family="BIZ UDGothic,BIZ UDGothic_MSFontService,sans-serif" font-weight="700" font-size="55" transform="matrix(1 0 0 1 1584.13 1573)">①</text><text fill="#FCFCFC" font-family="BIZ UDGothic,BIZ UDGothic_MSFontService,sans-serif" font-weight="700" font-size="55" transform="matrix(1 0 0 1 2883.34 1573)">①</text><text fill="#1C1C1C" font-family="BIZ UDGothic,BIZ UDGothic_MSFontService,sans-serif" font-weight="400" font-size="83" transform="matrix(1 0 0 1 797.5 1586)">順番通りに通信</text><path d="M1672.32 1095.35 1932.17 1095.35 1932.17 1251.25 1672.32 1251.25Z" fill="#00ADA2" fill-rule="evenodd"/><path d="M2451.85 1095.35 2711.69 1095.35 2711.69 1251.25 2451.85 1251.25Z" fill="#00ADA2" fill-rule="evenodd"/><text fill="#FCFCFC" font-family="BIZ UDGothic,BIZ UDGothic_MSFontService,sans-serif" font-weight="700" font-size="55" transform="matrix(1 0 0 1 1843.97 1198)">②</text><text fill="#FCFCFC" font-family="BIZ UDGothic,BIZ UDGothic_MSFontService,sans-serif" font-weight="700" font-size="55" transform="matrix(1 0 0 1 2623.5 1198)">①</text><path d="M1672.32 746.099 1932.17 746.099 1932.17 902.005 1672.32 902.005Z" fill="#F7933A" fill-rule="evenodd"/><path d="M1932.17 746.099 2192.01 746.099 2192.01 902.005 1932.17 902.005Z" fill="#F7933A" fill-rule="evenodd"/><path d="M2192.01 746.099 2451.85 746.099 2451.85 902.005 2192.01 902.005Z" fill="#F7933A" fill-rule="evenodd"/><path d="M2451.85 746.099 2711.69 746.099 2711.69 902.005 2451.85 902.005Z" fill="#F7933A" fill-rule="evenodd"/><path d="M2711.69 746.099 2971.54 746.099 2971.54 902.005 2711.69 902.005Z" fill="#F7933A" fill-rule="evenodd"/><text fill="#FCFCFC" font-family="BIZ UDGothic,BIZ UDGothic_MSFontService,sans-serif" font-weight="700" font-size="55" transform="matrix(1 0 0 1 2883.34 849)">①</text><path d="M1415 1933.13 2912.18 1933.13 2912.18 1946.88 1415 1946.88ZM2905.3 1905.63 2974.05 1940 2905.3 1974.38Z" fill="#1C1C1C"/><path d="M1415 1279.12 2912.18 1279.13 2912.18 1292.88 1415 1292.88ZM2905.3 1251.63 2974.05 1286 2905.3 1320.38Z" fill="#1C1C1C"/><path d="M1415 932.125 2912.18 932.125 2912.18 945.875 1415 945.875ZM2905.3 904.625 2974.05 939 2905.3 973.375Z" fill="#1C1C1C"/><path d="M1415 1653.12 2912.18 1653.13 2912.18 1666.88 1415 1666.88ZM2905.3 1625.63 2974.05 1660 2905.3 1694.38Z" fill="#1C1C1C"/></g></svg>