<svg width="2006" height="258" xmlns="http://www.w3.org/2000/svg" xmlns:xlink="http://www.w3.org/1999/xlink" xml:space="preserve" overflow="hidden"><defs><clipPath id="clip0"><rect x="799" y="852" width="2006" height="258"/></clipPath></defs><g clip-path="url(#clip0)" transform="translate(-799 -852)"><text fill="#FF0066" font-family="Consolas,Consolas_MSFontService,sans-serif" font-weight="400" font-size="83" text-decoration="underline" transform="matrix(1 0 0 1 889.04 955)">http</text><text fill="#1C1C1C" font-family="Consolas,Consolas_MSFontService,sans-serif" font-weight="400" font-size="83" transform="matrix(1 0 0 1 1070.08 955)">://</text><text fill="#FF9900" font-family="Consolas,Consolas_MSFontService,sans-serif" font-weight="400" font-size="83" text-decoration="underline" transform="matrix(1 0 0 1 1205.86 955)">198.51.100.255</text><text fill="#0066FF" font-family="Consolas,Consolas_MSFontService,sans-serif" font-weight="400" font-size="83" text-decoration="underline" transform="matrix(1 0 0 1 1849.82 955)">/joho1</text><text fill="#0066FF" font-family="Consolas,Consolas_MSFontService,sans-serif" font-weight="400" font-size="83" text-decoration="underline" transform="matrix(1 0 0 1 2121.38 955)">/internet.html</text><text fill="#1C1C1C" font-family="BIZ UDGothic,BIZ UDGothic_MSFontService,sans-serif" font-weight="400" font-size="55" transform="matrix(1 0 0 1 849.913 1068)">プロトコル</text><text fill="#1C1C1C" font-family="BIZ UDPGothic,BIZ UDPGothic_MSFontService,sans-serif" font-weight="400" font-size="55" transform="matrix(1 0 0 1 1408.23 1068)">IP </text><text fill="#1C1C1C" font-family="BIZ UDGothic,BIZ UDGothic_MSFontService,sans-serif" font-weight="400" font-size="55" transform="matrix(1 0 0 1 1490.16 1068)">アドレス</text><text fill="#1C1C1C" font-family="BIZ UDPGothic,BIZ UDPGothic_MSFontService,sans-serif" font-weight="400" font-size="55" transform="matrix(1 0 0 1 1912.6 1068)">Web </text><text fill="#1C1C1C" font-family="BIZ UDGothic,BIZ UDGothic_MSFontService,sans-serif" font-weight="400" font-size="55" transform="matrix(1 0 0 1 2061.56 1068)">サーバ内のファイルの場所</text></g></svg>